<svg fill="none" height="48" viewBox="0 0 48 48" width="48" xmlns="http://www.w3.org/2000/svg" xmlns:xlink="http://www.w3.org/1999/xlink"><linearGradient id="a" gradientUnits="userSpaceOnUse" x1="0" x2="49" y1="0" y2="48"><stop offset="0" stop-color="#525252"/><stop offset="1" stop-color="#171717"/></linearGradient><linearGradient id="b" gradientUnits="userSpaceOnUse" x1="42" x2="7" y1="11" y2="11"><stop offset=".298077" stop-color="#fff"/><stop offset="1" stop-color="#fff" stop-opacity=".65"/></linearGradient><rect fill="url(#a)" height="48" rx="3.6" width="48"/><path d="m28.3921 19.5398c.0767-.8438-.1278-1.5043-.6136-1.9816-.4858-.4858-1.304-.7287-2.4546-.7287-.7329 0-1.3466.0853-1.8409.2557-.4858.1705-.8651.4049-1.1378.7032-.2642.2982-.4304.6434-.4986 1.0355-.0767.3068-.0724.588.0128.8437.0938.2472.2685.473.5242.6776.2642.2045.6093.3878 1.0355.5497.4346.1619.9503.3068 1.5469.4346l2.0454.4603c1.3977.3068 2.5696.7116 3.5156 1.2145.9546.4943 1.7046 1.0823 2.25 1.7642.5455.6818.9034 1.4446 1.0739 2.2883.179.8438.1832 1.7642.0128 2.7614-.2898 1.7216-.9588 3.179-2.0071 4.3721-1.0483 1.1932-2.4162 2.1009-4.1037 2.7231-1.6875.6221-3.6392.9332-5.8551.9332-2.2671 0-4.1932-.3367-5.7784-1.01-1.5767-.6818-2.7188-1.7215-3.4262-3.1193-.6988-1.4062-.8693-3.2003-.5113-5.3821h6.75c-.1023.8012-.0171 1.4745.2556 2.0199.2728.5455.7117.9588 1.3168 1.2401.6051.2812 1.3594.4218 2.2628.4218.767 0 1.4233-.0937 1.9687-.2812.5455-.1875.9759-.4474 1.2912-.7798.3154-.3324.5071-.7117.5753-1.1378.0682-.3921 0-.7415-.2045-1.0483-.2046-.3068-.5753-.5838-1.1122-.831-.537-.2471-1.2742-.473-2.2117-.6775l-2.5057-.5625c-2.2244-.5114-3.9034-1.3551-5.0369-2.5313-1.1335-1.1761-1.5341-2.7869-1.2017-4.8324.2727-1.6704.9588-3.1278 2.0582-4.3721 1.108-1.2529 2.5142-2.2245 4.2188-2.9148 1.713-.6989 3.6094-1.0483 5.6889-1.0483 2.1136 0 3.8821.3537 5.3054 1.0611 1.4318.7074 2.4588 1.7003 3.081 2.9787.6306 1.2784.8011 2.7784.5113 4.5z" fill="url(#b)"/></svg>
